<?xml version="1.0" standalone="no"?>
<!DOCTYPE svg PUBLIC "-//W3C//DTD SVG 20010904//EN"
 "http://www.w3.org/TR/2001/REC-SVG-20010904/DTD/svg10.dtd">
<svg version="1.0" xmlns="http://www.w3.org/2000/svg"
 width="357.000000pt" height="357.000000pt" viewBox="0 0 357.000000 357.000000"
 preserveAspectRatio="xMidYMid meet">
<metadata>
Created by potrace 1.14, written by Peter Selinger 2001-2017
</metadata>
<g transform="translate(0.000000,357.000000) scale(0.100000,-0.100000)"
fill="#000000" stroke="none">
<path d="M3074 3542 c-39 -25 -58 -70 -52 -125 l5 -42 -176 -99 c-257 -145
-555 -325 -586 -354 -26 -24 -27 -28 -20 -94 6 -64 5 -69 -12 -64 -102 30
-343 35 -493 11 -52 -9 -142 -32 -199 -51 -57 -19 -106 -32 -108 -30 -3 2 -7
22 -10 44 -5 39 -8 42 -73 71 -79 35 -477 180 -667 242 l-133 44 0 43 c0 79
-48 132 -120 132 -62 0 -120 -58 -120 -120 0 -61 56 -120 114 -120 30 0 23 26
75 -275 45 -255 107 -571 116 -585 3 -6 63 -28 134 -50 l127 -41 -14 -67 c-9
-46 -12 -108 -9 -197 3 -113 8 -143 36 -225 58 -172 159 -290 318 -368 40 -20
73 -39 73 -43 0 -4 -29 -26 -65 -49 -58 -38 -69 -42 -91 -31 -84 38 -168 -37
-134 -120 27 -65 120 -76 162 -19 16 23 30 30 54 30 l33 0 -20 -46 c-15 -33
-20 -62 -17 -103 2 -37 -2 -64 -10 -74 -7 -8 -16 -31 -19 -50 -12 -77 41 -151
117 -163 34 -6 41 -11 51 -41 14 -44 4 -53 -62 -53 -54 0 -112 37 -153 97 -32
46 -32 56 -4 94 33 44 14 54 -135 75 -112 16 -129 17 -138 4 -14 -21 -2 -282
13 -291 7 -4 23 -2 36 5 23 12 30 9 86 -33 116 -88 248 -122 344 -88 23 8 42
13 42 10 0 -2 -14 -16 -30 -30 -42 -35 -60 -74 -60 -130 0 -68 28 -108 96
-140 142 -65 397 -26 466 70 19 26 23 46 24 107 1 41 7 89 14 105 l13 30 7
-25 c4 -14 5 -50 3 -80 -5 -68 16 -107 80 -145 125 -73 373 -69 455 8 72 66
69 176 -6 239 -27 22 -31 32 -32 79 -1 46 22 176 32 183 2 1 22 8 45 14 91 27
135 135 86 212 -11 16 -16 43 -14 81 1 33 -4 72 -13 93 l-15 36 49 0 c42 0 52
-4 67 -26 34 -53 104 -63 150 -21 87 78 -28 219 -121 146 l-26 -20 -60 36
c-33 20 -62 40 -65 45 -3 4 21 23 52 40 214 121 348 296 389 508 32 166 12
311 -70 513 -6 12 12 25 77 57 72 34 86 45 91 69 3 15 22 226 41 468 20 242
38 446 40 453 2 6 11 12 20 12 30 0 75 30 91 62 54 105 -72 222 -172 160z
m-949 -1046 c119 -56 163 -158 116 -263 -19 -41 -90 -103 -118 -103 -8 0 -13
-11 -13 -30 0 -28 -3 -30 -35 -30 -32 0 -35 2 -35 30 0 17 -4 30 -10 30 -5 0
-10 -16 -10 -35 0 -28 -4 -35 -20 -35 -16 0 -20 7 -20 35 0 19 -4 35 -10 35
-5 0 -10 -16 -10 -35 0 -33 -2 -35 -35 -35 -30 0 -35 3 -35 24 0 20 -6 24 -45
28 -83 10 -145 78 -145 159 0 150 116 247 295 248 64 1 90 -4 130 -23z m373
-443 c180 -88 272 -243 260 -441 -9 -162 -80 -248 -283 -347 -154 -76 -340
-109 -615 -109 l-175 -1 -87 44 c-302 149 -368 464 -146 684 60 60 168 127
202 127 9 0 94 -18 189 -41 94 -23 187 -41 205 -41 23 0 63 20 141 71 176 115
181 116 309 54z m264 -950 c10 -9 18 -27 18 -40 0 -28 -33 -63 -60 -63 -11 0
-29 9 -40 20 -55 55 24 135 82 83z m-1644 -43 c30 -28 28 -64 -4 -89 -33 -26
-45 -26 -74 -3 -30 24 -30 70 0 94 29 23 51 23 78 -2z m1346 -41 c25 -23 30
-38 34 -86 3 -50 0 -63 -22 -96 -14 -21 -26 -42 -26 -47 0 -16 32 -12 51 6 17
16 19 15 28 -8 19 -51 -14 -109 -69 -123 -26 -6 -26 -5 -37 82 -12 97 -47 201
-70 210 -23 9 -37 -12 -23 -36 14 -27 10 -43 -9 -32 -12 8 -12 22 -1 89 l12
81 52 -6 c38 -4 59 -13 80 -34z m-936 -110 l49 -81 -31 -31 -31 -32 -9 25
c-12 33 -26 50 -41 50 -10 0 -12 -17 -8 -73 10 -126 -32 -173 -150 -168 -42 2
-87 51 -87 95 0 38 15 55 33 37 14 -14 47 -14 47 0 0 6 -9 24 -21 40 -23 33
-35 94 -25 133 3 13 18 38 32 55 25 30 28 31 109 31 l84 0 49 -81z m677 -49
c2 0 -2 -16 -8 -35 -16 -53 9 -100 62 -116 35 -10 44 -9 76 10 20 11 39 21 42
21 12 0 -9 -183 -28 -245 -16 -54 -18 -68 -7 -85 11 -18 10 -23 -4 -31 -27
-15 -22 -28 15 -44 49 -20 79 -58 84 -107 4 -37 1 -49 -21 -75 -37 -44 -85
-58 -201 -58 -115 0 -187 20 -234 64 -29 27 -30 32 -29 103 1 55 -3 84 -18
113 -28 59 -52 54 -89 -20 -26 -52 -30 -70 -28 -132 2 -68 0 -74 -27 -102 -46
-46 -118 -66 -235 -66 -161 0 -225 35 -225 121 0 49 31 94 80 114 30 12 39 33
20 45 -5 3 -10 33 -10 66 0 34 -6 69 -14 82 -29 46 -29 63 3 76 41 17 69 50
91 107 10 27 19 41 20 32 0 -28 49 -58 92 -58 52 0 88 35 88 85 0 20 -4 44
-10 54 -8 15 10 30 122 103 l131 85 129 -53 c72 -30 131 -54 133 -54z m129
-22 c22 -30 20 -61 -4 -83 -44 -40 -119 -2 -105 54 12 53 80 70 109 29z m-682
-65 c38 -34 11 -103 -41 -103 -60 1 -86 59 -48 108 14 17 67 15 89 -5z"/>
<path d="M2102 2318 c-17 -17 -15 -69 4 -96 29 -42 84 -17 84 39 0 51 -57 88
-88 57z"/>
<path d="M1803 2288 c-46 -51 -37 -108 18 -108 25 0 33 6 45 35 18 44 18 60
-2 79 -21 22 -37 20 -61 -6z"/>
<path d="M2553 1951 c-12 -15 -56 -50 -97 -77 -85 -55 -88 -61 -60 -154 22
-73 60 -110 114 -110 48 0 89 36 91 79 3 46 -3 105 -13 130 -7 19 -5 33 9 58
20 38 10 57 -14 24 -24 -35 -35 -5 -12 33 32 53 19 65 -18 17z"/>
<path d="M1460 1846 c0 -9 11 -28 25 -42 29 -29 23 -55 -6 -28 -11 9 -22 14
-25 11 -8 -8 23 -57 35 -57 4 0 6 -11 3 -25 -2 -14 -1 -51 3 -82 6 -46 13 -63
41 -91 30 -30 39 -34 71 -29 20 4 47 17 60 29 28 29 47 119 35 174 -8 38 -9
40 -99 74 -51 19 -104 46 -118 59 -21 21 -25 22 -25 7z"/>
<path d="M2039 1582 c-26 -13 -35 -24 -37 -49 -6 -61 85 -87 133 -38 30 29 31
46 8 73 -26 29 -64 34 -104 14z m83 -35 c17 -28 -24 -54 -68 -43 -31 8 -32 43
-1 56 24 9 58 3 69 -13z"/>
<path d="M2162 1410 c-38 -48 -119 -53 -163 -9 -23 23 -47 16 -28 -8 57 -68
187 -51 230 30 16 29 -13 19 -39 -13z"/>
</g>
</svg>
